<svg width="1365" height="1446" viewBox="0 0 1365 1446" fill="none" xmlns="http://www.w3.org/2000/svg">
<path d="M1330.74 964.017C1379.01 689.633 1295.17 308.543 1137.66 242.488C1188.47 209.968 1183.39 158.649 1157.98 117.999C1124.95 77.3495 1013.17 26.5376 929.329 3.6722C799.25 -16.6526 751.487 51.9437 769.271 97.6741C665.615 71.2519 499.968 105.296 436.453 143.405C257.595 31.6184 212.881 191.676 258.611 252.65C108.208 321.754 78.2291 511.791 96.0133 712.498C-117.397 844.609 75.6885 1139.32 187.475 1085.97C457.794 1575.79 959.816 1505.16 1231.66 1233.32C1404.42 1202.83 1373.93 1009.75 1330.74 964.017Z" fill="#FF6136"/>
<path d="M1160.52 826.825C892.236 727.234 671.035 846.303 593.97 918.287C575.678 936.579 566.024 958.936 566.024 979.261C566.024 1011.78 609.214 1036.52 657.485 1040.24C683.907 1042.27 723.541 1035.03 756.568 1022.45C799.25 1006.19 855.652 997.045 929.329 1007.21C982.173 1017.37 1033.86 1106.29 1066.52 1144.4C1078.72 1158.63 1104.63 1179.97 1155.44 1179.97C1210.32 1177.94 1257.07 1154.56 1279.93 1101.21C1288.06 1089.01 1293 1037.69 1285.01 981.802C1279.93 946.233 1258.08 877.637 1160.52 826.825Z" fill="#610000"/>
<path d="M1203.71 994.505C1144.77 961.985 1141.89 864.935 1147.82 821.744C1206.25 842.069 1264.69 900.503 1279.93 956.396C1280.78 980.108 1268.75 1014.83 1203.71 994.505Z" fill="white"/>
<path d="M555.861 382.221C513.179 372.059 360.235 295.841 286.558 227.245C268.774 204.38 296.212 135.784 365.316 145.946C418.669 161.19 618.868 246.045 657.485 300.922C675.269 326.195 699.659 369.01 624.457 387.303C601.592 389.843 578.727 387.666 555.861 382.221Z" fill="black" stroke="black"/>
<path d="M1104.63 809.042C1066.52 890.341 964.897 923.368 901.382 791.257C972.519 783.636 1046.2 791.257 1104.63 809.042Z" fill="white"/>
<path d="M985.222 707.418C1061.44 702.337 1094.47 684.553 1137.66 648.984C1208.79 582.928 1218.96 410.168 1142.74 326.329C1065.5 247.062 992.844 234.866 919.166 239.948C799.25 241.981 741.325 326.329 726.081 400.006C713.378 496.548 733.703 542.279 769.271 598.172C830.245 677.439 898.842 702.337 985.222 707.418Z" fill="white"/>
<ellipse cx="134.652" cy="137.192" rx="134.652" ry="137.192" transform="matrix(-1 0 0 1 1104.63 316.166)" fill="black"/>
<path d="M215.421 468.601C384.117 326.328 601.592 400.005 660.026 494.007C666.343 504.17 667.647 514.332 660.026 519.413C529.947 576.323 286.558 546.852 215.421 504.17C205.259 498.072 202.718 479.315 215.421 468.601Z" fill="white"/>
<path d="M306.883 534.657C289.099 473.683 306.883 438.115 334.83 402.546C393.263 384.762 461.859 382.221 532.996 405.087C571.105 443.195 566.024 506.71 545.699 547.36C461.859 557.522 333.305 548.885 306.883 534.657Z" fill="black"/>
<path d="M654.944 521.954C568.564 661.686 357.695 674.389 248.449 519.413C383.101 560.063 499.968 565.144 654.944 521.954Z" fill="#CC1D00"/>
<path d="M1076.68 217.082C995.384 219.114 822.624 143.405 812.461 102.755C802.299 84.9712 819.575 30.6021 878.517 36.6995C916.626 40.6418 1057.88 89.0362 1104.63 125.621C1137.66 156.108 1145.79 215.049 1076.68 217.082Z" fill="black" stroke="black"/>
<path d="M748.946 826.825C766.73 913.206 691.021 945.725 611.754 903.043C649.863 870.016 718.459 836.988 748.946 826.825Z" fill="white"/>
<g filter="url(#filter0_f_47_26)">
<path d="M159.528 870.015C141.744 862.394 123.96 867.475 106.176 875.097C90.9322 881.63 77.7211 890.848 75.6886 892.881C65.5262 903.043 73.148 920.827 93.4727 920.827C112.104 922.521 150.55 922.928 159.528 915.746C172.231 905.584 174.772 877.637 159.528 870.015Z" fill="#D12203"/>
</g>
<defs>
<filter id="filter0_f_47_26" x="67.2068" y="862.245" width="106.823" height="63.6177" filterUnits="userSpaceOnUse" color-interpolation-filters="sRGB">
<feFlood flood-opacity="0" result="BackgroundImageFix"/>
<feBlend mode="normal" in="SourceGraphic" in2="BackgroundImageFix" result="shape"/>
<feGaussianBlur stdDeviation="2" result="effect1_foregroundBlur_47_26"/>
</filter>
</defs>
</svg>
