<svg width="269" height="285" viewBox="0 0 269 285" fill="none" xmlns="http://www.w3.org/2000/svg">
<path d="M6.61064 189.723C-2.88938 135.723 13.6106 60.7226 44.6107 47.7226C34.6107 41.3226 35.6106 31.2227 40.6106 23.2227C47.1106 15.2227 69.1106 5.22272 85.6106 0.722704C111.211 -3.2773 120.611 10.2227 117.111 19.2227C137.511 14.0227 170.111 20.7227 182.611 28.2226C217.811 6.22263 226.611 37.7227 217.611 49.7226C247.211 63.3226 253.111 100.723 249.611 140.223C291.611 166.223 253.611 224.223 231.611 213.723C178.411 310.123 79.6106 296.223 26.1106 242.723C-7.8894 236.723 -1.8894 198.723 6.61064 189.723Z" fill="#FF6136"/>
<path d="M40.1106 162.723C92.9106 143.123 136.444 166.556 151.611 180.723C155.211 184.323 157.111 188.723 157.111 192.723C157.111 199.123 148.611 203.992 139.111 204.723C133.911 205.123 126.111 203.699 119.611 201.223C111.211 198.023 100.111 196.223 85.6106 198.223C75.2106 200.223 65.0392 217.723 58.6106 225.223C56.2106 228.023 51.1106 232.223 41.1106 232.223C30.3106 231.823 21.1106 227.223 16.6106 216.723C15.0106 214.323 14.0392 204.223 15.6106 193.223C16.6106 186.223 20.9106 172.723 40.1106 162.723Z" fill="#610000"/>
<path d="M31.6106 195.723C43.2106 189.323 43.7773 170.223 42.6106 161.723C31.1106 165.723 19.6106 177.223 16.6106 188.223C16.444 192.889 18.8106 199.723 31.6106 195.723Z" fill="white"/>
<path d="M159.111 75.2227C167.511 73.2227 197.611 58.2227 212.111 44.7227C215.611 40.2227 210.211 26.7227 196.611 28.7227C186.111 31.7227 146.711 48.4227 139.111 59.2227C135.611 64.1964 130.811 72.6227 145.611 76.2227C150.111 76.7227 154.611 76.2941 159.111 75.2227Z" fill="black" stroke="black"/>
<path d="M51.1106 159.223C58.6106 175.223 78.6106 181.723 91.1106 155.723C77.1106 154.223 62.6106 155.723 51.1106 159.223Z" fill="white"/>
<path d="M74.6106 139.223C59.6106 138.223 53.1106 134.723 44.6107 127.723C30.6106 114.723 28.6106 80.7227 43.6106 64.2228C58.8106 48.6228 73.1106 46.2227 87.6106 47.2228C111.211 47.6228 122.611 64.2228 125.611 78.7228C128.111 97.7228 124.111 106.723 117.111 117.723C105.111 133.323 91.6106 138.223 74.6106 139.223Z" fill="white"/>
<ellipse cx="77.6106" cy="89.2227" rx="26.5" ry="27" fill="black"/>
<path d="M226.111 92.2227C192.911 64.2227 150.111 78.7227 138.611 97.2227C137.367 99.2227 137.111 101.223 138.611 102.223C164.211 113.423 212.111 107.623 226.111 99.2227C228.111 98.0227 228.611 94.3311 226.111 92.2227Z" fill="white"/>
<path d="M208.111 105.223C211.611 93.2228 208.111 86.2228 202.611 79.2228C191.111 75.7227 177.611 75.2227 163.611 79.7227C156.111 87.2227 157.111 99.7227 161.111 107.723C177.611 109.723 202.911 108.023 208.111 105.223Z" fill="black"/>
<path d="M139.611 102.723C156.611 130.223 198.111 132.723 219.611 102.223C193.111 110.223 170.111 111.223 139.611 102.723Z" fill="#CC1D00"/>
<path d="M56.6107 42.7226C72.6106 43.1226 106.611 28.2227 108.611 20.2226C110.611 16.7227 107.211 6.02264 95.6107 7.22264C88.1107 7.9985 60.3106 17.5227 51.1107 24.7227C44.6106 30.7227 43.0106 42.3226 56.6107 42.7226Z" fill="black" stroke="black"/>
<path d="M121.111 162.723C117.611 179.723 132.511 186.123 148.111 177.723C140.611 171.223 127.111 164.723 121.111 162.723Z" fill="white"/>
<g filter="url(#filter0_f_47_26)">
<path d="M237.111 171.223C240.611 169.723 244.111 170.723 247.611 172.223C250.611 173.508 253.211 175.323 253.611 175.723C255.611 177.723 254.111 181.223 250.111 181.223C246.444 181.556 238.878 181.636 237.111 180.223C234.611 178.223 234.111 172.723 237.111 171.223Z" fill="#D12203"/>
</g>
<defs>
<filter id="filter0_f_47_26" x="231.044" y="166.481" width="27.4488" height="18.9458" filterUnits="userSpaceOnUse" color-interpolation-filters="sRGB">
<feFlood flood-opacity="0" result="BackgroundImageFix"/>
<feBlend mode="normal" in="SourceGraphic" in2="BackgroundImageFix" result="shape"/>
<feGaussianBlur stdDeviation="2" result="effect1_foregroundBlur_47_26"/>
</filter>
</defs>
</svg>
