<svg width="4271" height="4527" viewBox="0 0 4271 4527" fill="none" xmlns="http://www.w3.org/2000/svg">
<path d="M105.152 3017.82C-45.96 2158.87 216.497 965.885 709.6 759.1C550.536 657.298 566.44 496.644 645.973 369.392C749.365 242.14 1099.31 83.0752 1361.77 11.4957C1768.97 -52.1303 1918.49 162.608 1862.82 305.766C2187.31 223.052 2705.87 329.626 2904.7 448.923C3464.61 98.9803 3604.58 600.037 3461.43 790.913C3932.26 1007.24 4026.11 1602.15 3970.43 2230.45C4638.51 2644.02 4034.06 3566.6 3684.12 3399.58C2837.89 4932.97 1266.33 4711.87 415.329 3860.87C-125.493 3765.43 -30.0538 3160.98 105.152 3017.82Z" fill="#FF6136"/>
<path d="M638.019 2588.35C1477.88 2276.58 2170.35 2649.33 2411.6 2874.67C2468.86 2931.93 2499.08 3001.92 2499.08 3065.55C2499.08 3167.35 2363.88 3244.8 2212.76 3256.42C2130.05 3262.79 2005.98 3240.14 1902.59 3200.75C1768.97 3149.85 1592.41 3121.22 1361.77 3153.03C1196.34 3184.84 1034.55 3463.21 932.29 3582.51C894.114 3627.05 812.991 3693.85 653.926 3693.85C482.136 3687.49 335.796 3614.32 264.216 3447.3C238.766 3409.13 223.314 3248.47 248.31 3073.5C264.216 2962.15 332.614 2747.42 638.019 2588.35Z" fill="#610000"/>
<path d="M502.814 3113.27C687.329 3011.46 696.343 2707.65 677.786 2572.44C494.861 2636.07 311.937 2819 264.217 2993.97C261.566 3068.2 299.211 3176.89 502.814 3113.27Z" fill="white"/>
<path d="M2530.89 1196.53C2664.51 1164.72 3143.3 926.12 3373.94 711.382C3429.61 639.803 3343.72 425.065 3127.39 456.878C2960.37 504.598 2333.65 770.236 2212.76 942.027C2157.09 1021.14 2080.74 1155.17 2316.16 1212.44C2387.74 1220.39 2459.32 1213.57 2530.89 1196.53Z" fill="black" stroke="black"/>
<path d="M812.991 2532.68C932.29 2787.18 1250.42 2890.58 1449.25 2477.01C1226.56 2453.15 995.916 2477.01 812.991 2532.68Z" fill="white"/>
<path d="M1186.79 2214.55C948.197 2198.64 844.805 2142.97 709.601 2031.62C486.908 1824.84 455.095 1284.02 693.693 1021.56C935.472 773.419 1162.94 735.242 1393.58 751.15C1768.97 757.512 1950.31 1021.56 1998.03 1252.2C2037.79 1554.43 1974.17 1697.59 1862.82 1872.56C1671.94 2120.7 1457.21 2198.64 1186.79 2214.55Z" fill="white"/>
<ellipse cx="1234.51" cy="1419.22" rx="421.522" ry="429.476" fill="black"/>
<path d="M3596.63 1466.94C3068.53 1021.56 2387.74 1252.2 2204.81 1546.47C2185.04 1578.29 2180.95 1610.1 2204.81 1626.01C2612.02 1804.16 3373.94 1711.9 3596.63 1578.29C3628.44 1559.2 3636.4 1500.48 3596.63 1466.94Z" fill="white"/>
<path d="M3310.31 1673.73C3365.99 1482.85 3310.31 1371.5 3222.83 1260.16C3039.9 1204.48 2825.16 1196.53 2602.47 1268.11C2483.17 1387.41 2499.08 1586.24 2562.71 1713.49C2825.16 1745.31 3227.6 1718.27 3310.31 1673.73Z" fill="black"/>
<path d="M2220.72 1633.96C2491.13 2071.39 3151.25 2111.15 3493.24 1626.01C3071.72 1753.26 2705.87 1769.16 2220.72 1633.96Z" fill="#CC1D00"/>
<path d="M900.478 679.568C1154.98 685.931 1695.8 448.925 1727.62 321.672C1759.43 266 1705.35 95.7992 1520.83 114.887C1401.53 127.228 959.332 278.725 812.992 393.252C709.599 488.691 684.149 673.204 900.478 679.568Z" fill="black" stroke="black"/>
<path d="M1926.45 2588.35C1870.77 2858.76 2107.78 2960.56 2355.92 2826.95C2236.62 2723.56 2021.89 2620.16 1926.45 2588.35Z" fill="white"/>
<g filter="url(#filter0_f_47_26)">
<path d="M3771.6 2723.56C3827.28 2699.7 3882.95 2715.6 3938.62 2739.46C3986.34 2759.91 4027.7 2788.77 4034.06 2795.13C4065.87 2826.95 4042.01 2882.62 3978.39 2882.62C3920.06 2887.92 3799.71 2889.2 3771.6 2866.71C3731.84 2834.9 3723.88 2747.42 3771.6 2723.56Z" fill="#D12203"/>
</g>
<defs>
<filter id="filter0_f_47_26" x="3734.73" y="2707.75" width="317.362" height="182.109" filterUnits="userSpaceOnUse" color-interpolation-filters="sRGB">
<feFlood flood-opacity="0" result="BackgroundImageFix"/>
<feBlend mode="normal" in="SourceGraphic" in2="BackgroundImageFix" result="shape"/>
<feGaussianBlur stdDeviation="2" result="effect1_foregroundBlur_47_26"/>
</filter>
</defs>
</svg>
