<svg width="1365" height="1446" viewBox="0 0 1365 1446" fill="none" xmlns="http://www.w3.org/2000/svg">
<path d="M33.5899 964.017C-14.6815 689.633 69.1582 308.543 226.675 242.488C175.864 209.968 180.944 158.649 206.35 117.999C239.378 77.3495 351.164 26.5376 435.004 3.6722C565.082 -16.6526 612.846 51.9437 595.061 97.6741C698.718 71.2519 864.365 105.296 927.88 143.405C1106.74 31.6184 1151.45 191.676 1105.72 252.65C1256.12 321.754 1286.1 511.791 1268.32 712.498C1481.73 844.609 1288.64 1139.32 1176.86 1085.97C906.539 1575.79 404.517 1505.16 132.673 1233.32C-40.0876 1202.83 -9.60042 1009.75 33.5899 964.017Z" fill="#FF6136"/>
<path d="M203.81 826.825C472.097 727.234 693.298 846.303 770.363 918.287C788.655 936.579 798.309 958.936 798.309 979.261C798.309 1011.78 755.119 1036.52 706.848 1040.24C680.426 1042.27 640.792 1035.03 607.764 1022.45C565.082 1006.19 508.681 997.045 435.004 1007.21C382.159 1017.37 330.477 1106.29 297.812 1144.4C285.617 1158.63 259.703 1179.97 208.891 1179.97C154.014 1177.94 107.267 1154.56 84.4016 1101.21C76.2717 1089.01 71.3357 1037.69 79.3204 981.802C84.4016 946.233 106.251 877.637 203.81 826.825Z" fill="#610000"/>
<path d="M160.619 994.505C219.561 961.985 222.441 864.935 216.513 821.744C158.079 842.069 99.6454 900.503 84.4018 956.396C83.5549 980.108 95.5802 1014.83 160.619 994.505Z" fill="white"/>
<path d="M808.472 382.221C851.154 372.059 1004.1 295.841 1077.77 227.245C1095.56 204.38 1068.12 135.784 999.016 145.946C945.664 161.19 745.465 246.045 706.848 300.922C689.064 326.195 664.674 369.01 739.875 387.303C762.741 389.843 785.606 387.666 808.472 382.221Z" fill="black" stroke="black"/>
<path d="M259.703 809.042C297.812 890.341 399.436 923.368 462.95 791.257C391.814 783.636 318.136 791.257 259.703 809.042Z" fill="white"/>
<path d="M379.111 707.418C302.893 702.337 269.865 684.553 226.676 648.984C155.538 582.928 145.376 410.168 221.594 326.329C298.828 247.062 371.489 234.866 445.166 239.948C565.083 241.981 623.008 326.329 638.252 400.006C650.955 496.548 630.63 542.279 595.062 598.172C534.087 677.439 465.491 702.337 379.111 707.418Z" fill="white"/>
<ellipse cx="394.354" cy="453.358" rx="134.652" ry="137.192" fill="black"/>
<path d="M1148.91 468.601C980.216 326.328 762.741 400.005 704.307 494.007C697.99 504.17 696.685 514.332 704.307 519.413C834.386 576.323 1077.77 546.852 1148.91 504.17C1159.07 498.072 1161.61 479.315 1148.91 468.601Z" fill="white"/>
<path d="M1057.45 534.657C1075.23 473.683 1057.45 438.115 1029.5 402.546C971.07 384.762 902.473 382.221 831.337 405.087C793.228 443.195 798.309 506.71 818.634 547.36C902.474 557.522 1031.03 548.885 1057.45 534.657Z" fill="black"/>
<path d="M709.388 521.954C795.769 661.686 1006.64 674.389 1115.88 519.413C981.232 560.063 864.365 565.144 709.388 521.954Z" fill="#CC1D00"/>
<path d="M287.65 217.082C368.949 219.114 541.709 143.405 551.872 102.755C562.034 84.9712 544.758 30.6021 485.816 36.6995C447.707 40.6418 306.45 89.0362 259.703 125.621C226.675 156.108 218.545 215.049 287.65 217.082Z" fill="black" stroke="black"/>
<path d="M615.386 826.825C597.602 913.206 673.312 945.725 752.578 903.043C714.47 870.016 645.874 836.988 615.386 826.825Z" fill="white"/>
<g filter="url(#filter0_f_47_26)">
<path d="M1204.8 870.015C1222.59 862.394 1240.37 867.475 1258.16 875.097C1273.4 881.63 1286.61 890.848 1288.64 892.881C1298.81 903.043 1291.18 920.827 1270.86 920.827C1252.23 922.521 1213.78 922.928 1204.8 915.746C1192.1 905.584 1189.56 877.637 1204.8 870.015Z" fill="#D12203"/>
</g>
<defs>
<filter id="filter0_f_47_26" x="1190.3" y="862.245" width="106.823" height="63.6177" filterUnits="userSpaceOnUse" color-interpolation-filters="sRGB">
<feFlood flood-opacity="0" result="BackgroundImageFix"/>
<feBlend mode="normal" in="SourceGraphic" in2="BackgroundImageFix" result="shape"/>
<feGaussianBlur stdDeviation="2" result="effect1_foregroundBlur_47_26"/>
</filter>
</defs>
</svg>
