<svg width="2025" height="2146" viewBox="0 0 2025 2146" fill="none" xmlns="http://www.w3.org/2000/svg">
<path d="M49.8506 1430.69C-21.7888 1023.48 102.637 457.907 336.408 359.875C260.998 311.612 268.538 235.449 306.243 175.122C355.259 114.794 521.161 39.3843 645.587 5.44989C838.635 -24.714 909.521 77.0894 883.127 144.958C1036.96 105.745 1282.8 156.269 1377.06 212.826C1642.5 46.9246 1708.86 284.466 1640.99 374.957C1864.21 477.514 1908.7 759.546 1882.31 1057.41C2199.03 1253.48 1912.47 1690.86 1746.57 1611.68C1345.39 2338.62 600.341 2233.8 196.899 1830.36C-59.4937 1785.12 -14.2479 1498.56 49.8506 1430.69Z" fill="#FF6136"/>
<path d="M302.473 1227.09C700.636 1079.28 1028.92 1255.99 1143.29 1362.82C1170.44 1389.97 1184.77 1423.15 1184.77 1453.32C1184.77 1501.58 1120.67 1538.3 1049.03 1543.81C1009.82 1546.82 950.996 1536.09 901.98 1517.41C838.635 1493.28 754.931 1479.71 645.587 1494.79C567.161 1509.87 490.458 1641.84 441.981 1698.4C423.882 1719.51 385.423 1751.18 310.014 1751.18C228.571 1748.17 159.194 1713.48 125.26 1634.3C113.194 1616.2 105.869 1540.04 117.719 1457.09C125.26 1404.3 157.686 1302.5 302.473 1227.09Z" fill="#610000"/>
<path d="M238.374 1475.94C325.85 1427.68 330.123 1283.64 321.325 1219.55C234.604 1249.71 147.883 1336.43 125.26 1419.38C124.003 1454.57 141.85 1506.1 238.374 1475.94Z" fill="white"/>
<path d="M1199.85 567.252C1263.19 552.17 1490.18 439.056 1599.52 337.253C1625.91 303.318 1585.19 201.515 1482.63 216.597C1403.45 239.22 1106.34 365.154 1049.03 446.597C1022.64 484.103 986.439 547.646 1098.04 574.793C1131.98 578.564 1165.91 575.332 1199.85 567.252Z" fill="black" stroke="black"/>
<path d="M385.423 1200.69C441.981 1321.35 592.8 1370.37 687.062 1174.3C581.488 1162.99 472.144 1174.3 385.423 1200.69Z" fill="white"/>
<path d="M562.636 1049.87C449.522 1042.33 400.506 1015.94 336.408 963.153C230.833 865.12 215.752 608.727 328.866 484.302C443.489 366.663 551.325 348.564 660.669 356.105C838.636 359.122 924.603 484.302 947.226 593.646C966.078 736.924 935.914 804.793 883.127 887.744C792.636 1005.38 690.833 1042.33 562.636 1049.87Z" fill="white"/>
<ellipse cx="585.259" cy="672.825" rx="199.836" ry="203.606" fill="black"/>
<path d="M1705.09 695.448C1454.73 484.301 1131.98 593.645 1045.26 733.153C1035.88 748.235 1033.95 763.317 1045.26 770.858C1238.31 855.317 1599.52 811.579 1705.09 748.235C1720.17 739.186 1723.95 711.348 1705.09 695.448Z" fill="white"/>
<path d="M1569.35 793.482C1595.75 702.99 1569.35 650.203 1527.88 597.416C1441.16 571.022 1339.36 567.252 1233.78 601.186C1177.22 657.743 1184.77 752.006 1214.93 812.333C1339.36 827.415 1530.14 814.597 1569.35 793.482Z" fill="black"/>
<path d="M1052.8 774.628C1181 982.005 1493.95 1000.86 1656.08 770.858C1456.24 831.186 1282.8 838.727 1052.8 774.628Z" fill="#CC1D00"/>
<path d="M426.899 322.17C547.555 325.186 803.947 212.827 819.029 152.498C834.111 126.106 808.472 45.4166 720.997 54.4658C664.44 60.3165 454.801 132.138 385.424 186.433C336.407 231.679 324.342 319.153 426.899 322.17Z" fill="black" stroke="black"/>
<path d="M913.291 1227.09C886.898 1355.28 999.258 1403.55 1116.9 1340.2C1060.34 1291.18 958.537 1242.17 913.291 1227.09Z" fill="white"/>
<g filter="url(#filter0_f_47_26)">
<path d="M1788.04 1291.18C1814.44 1279.87 1840.83 1287.41 1867.22 1298.73C1889.85 1308.42 1909.45 1322.1 1912.47 1325.12C1927.55 1340.2 1916.24 1366.59 1886.08 1366.59C1858.43 1369.11 1801.37 1369.71 1788.04 1359.05C1769.19 1343.97 1765.42 1302.5 1788.04 1291.18Z" fill="#D12203"/>
</g>
<defs>
<filter id="filter0_f_47_26" x="1768.46" y="1281.59" width="154.663" height="90.542" filterUnits="userSpaceOnUse" color-interpolation-filters="sRGB">
<feFlood flood-opacity="0" result="BackgroundImageFix"/>
<feBlend mode="normal" in="SourceGraphic" in2="BackgroundImageFix" result="shape"/>
<feGaussianBlur stdDeviation="2" result="effect1_foregroundBlur_47_26"/>
</filter>
</defs>
</svg>
